<?xml version="1.0" encoding="utf-8"?>
<!-- Generator: Adobe Illustrator 23.1.0, SVG Export Plug-In . SVG Version: 6.00 Build 0)  -->
<svg version="1.1" id="Layer_1" xmlns="http://www.w3.org/2000/svg" xmlns:xlink="http://www.w3.org/1999/xlink" x="0px" y="0px"
	 viewBox="0 0 566.93 623.62" style="enable-background:new 0 0 566.93 623.62;" xml:space="preserve">
<style type="text/css">
	.st0{fill:#0F4A7F;}
</style>
<g>
	<path class="st0" d="M170.13,590.42c-2.22,12.76-4.57,19.13-7.07,19.13c-2.49,0-4.86-6.37-7.07-19.13
		c-1.66-12.19-3.88-24.11-6.65-35.75c-2.78-11.64-6.65-23.41-11.64-35.34c-4.99-11.91-11.93-23.7-20.79-35.34
		c-8.87-11.64-20.24-23.55-34.09-35.75c-2.78-2.21-4.03-3.87-3.74-4.99c0.27-1.1,2.91-1.38,7.9-0.83c7.2,0.56,13.99,2.36,20.37,5.4
		c6.37,3.05,12.47,6.24,18.29,9.56c5.82,3.33,11.77,6.38,17.88,9.15c6.09,2.78,12.75,4.16,19.96,4.16c6.65,0,13.02-1.38,19.12-4.16
		c6.09-2.77,12.19-5.82,18.29-9.15c6.09-3.33,12.33-6.51,18.71-9.56c6.37-3.04,13.16-4.85,20.37-5.4c4.43-0.55,6.78-0.42,7.07,0.42
		c0.27,0.83-0.97,2.64-3.74,5.4c-14.42,12.2-25.92,24.11-34.51,35.75c-8.6,11.64-15.38,23.42-20.37,35.34
		c-4.99,11.93-8.87,23.7-11.64,35.34C174,566.3,171.79,578.23,170.13,590.42z M443.69,99.84c-20.52,1.12-41.58,1.95-63.19,2.49
		c-21.62,0.56-43.52,1.66-65.69,3.33c-19.41,1.66-39.22,3.61-59.45,5.82c-20.24,2.22-40.2,5.82-59.87,10.81
		c-19.68,4.99-38.81,11.51-57.37,19.54c-18.58,8.04-35.9,18.44-51.97,31.18c-3.88,2.78-6.11,4.03-6.65,3.74
		c-0.56-0.27-0.56-2.62,0-7.07c1.1-9.42,4.29-17.18,9.56-23.28c5.26-6.09,10.67-12.75,16.21-19.96
		c9.42-12.75,14.14-23.97,14.14-33.68c0-9.69-4.72-20.92-14.14-33.68c-4.99-6.65-10.26-13.16-15.8-19.54
		c-5.55-6.37-8.87-13.99-9.98-22.87c-0.56-4.43-0.56-6.92,0-7.48c0.55-0.54,2.77,0.56,6.65,3.33c16.63,12.76,34.22,23.15,52.8,31.18
		c18.57,8.04,37.69,14.55,57.37,19.54c19.67,4.99,39.63,8.6,59.87,10.81c20.23,2.22,40.04,4.16,59.45,5.82
		c21.62,1.66,43.24,2.78,64.86,3.33c21.62,0.56,42.68,1.39,63.19,2.49c1.66,0,4.85,0.14,9.56,0.42c4.7,0.29,9.7,0.7,14.97,1.25
		c5.26,0.56,9.84,1.25,13.72,2.08c3.87,0.83,5.82,1.81,5.82,2.91c0,1.66-2.08,2.91-6.24,3.74c-4.16,0.83-8.73,1.53-13.72,2.08
		c-4.99,0.56-9.85,0.97-14.55,1.25C448.54,99.71,445.35,99.84,443.69,99.84z M443.69,335.15c-20.52,1.12-41.58,2.08-63.19,2.91
		s-43.52,2.08-65.69,3.74c-19.41,1.66-39.22,3.61-59.45,5.82c-20.24,2.22-40.2,5.69-59.87,10.39c-19.68,4.72-38.81,11.1-57.37,19.12
		c-18.58,8.04-35.9,18.44-51.97,31.18c-4.99,3.89-7.21,3.05-6.65-2.49c1.1-9.42,4.29-17.17,9.56-23.28
		c5.26-6.09,10.67-12.75,16.21-19.96c9.42-13.3,14.27-24.66,14.55-34.09c0.27-9.42-4.57-20.79-14.55-34.09
		c-4.99-6.65-10.26-13.02-15.8-19.12c-5.55-6.09-8.87-13.85-9.98-23.28c-0.56-6.09,1.66-7.2,6.65-3.33
		c16.07,12.76,33.39,23.15,51.97,31.18c18.57,8.04,37.83,14.42,57.79,19.12c19.96,4.72,40.04,8.18,60.28,10.39
		c20.23,2.22,40.04,4.16,59.45,5.82c21.62,1.66,43.24,2.78,64.86,3.33c21.62,0.56,42.68,1.39,63.19,2.49c1.66,0,4.99,0,9.98,0
		c4.99,0,9.98,0.29,14.96,0.83c4.99,0.56,9.42,1.39,13.31,2.49c3.87,1.12,5.82,2.49,5.82,4.16c0,2.22-1.95,3.74-5.82,4.57
		c-3.88,0.83-8.32,1.39-13.31,1.66c-4.99,0.29-9.98,0.42-14.96,0.42C448.68,335.15,445.35,335.15,443.69,335.15z M468.63,215.42
		c-12.2,1.66-24.25,3.74-36.17,6.24c-11.93,2.49-23.84,6.24-35.76,11.23c-11.93,4.99-23.84,11.93-35.75,20.79
		c-11.93,8.87-23.98,20.24-36.17,34.09c-4.44,5.55-6.38,4.44-5.82-3.33c0.55-7.2,2.35-13.99,5.41-20.37
		c3.04-6.37,6.37-12.47,9.98-18.29c3.6-5.82,6.78-11.77,9.56-17.88c2.77-6.09,4.16-12.47,4.16-19.12c0-6.65-1.39-13.02-4.16-19.12
		c-2.78-6.09-5.96-12.19-9.56-18.29c-3.61-6.09-6.94-12.19-9.98-18.29c-3.05-6.09-4.86-13.02-5.41-20.79
		c-0.56-4.43-0.29-6.78,0.83-7.07c1.1-0.27,2.77,0.7,4.99,2.91c12.19,14.42,24.24,26.06,36.17,34.92
		c11.91,8.87,23.83,15.8,35.75,20.79c11.92,4.99,23.83,8.87,35.76,11.64c11.91,2.78,23.97,4.99,36.17,6.65
		c12.75,2.22,19.13,4.44,19.13,6.65C487.76,210.99,481.38,213.21,468.63,215.42z M411.26,590.42c-1.66,12.76-4.03,19.13-7.07,19.13
		c-3.06,0-5.69-6.37-7.9-19.13c-1.66-12.19-3.74-24.11-6.23-35.75c-2.5-11.64-6.38-23.41-11.64-35.34
		c-5.28-11.91-12.34-23.7-21.21-35.34c-8.87-11.64-20.24-23.55-34.09-35.75c-2.78-2.77-4.03-4.57-3.74-5.4
		c0.27-0.83,2.91-0.96,7.9-0.42c7.2,0.56,13.99,2.36,20.37,5.4c6.37,3.05,12.6,6.24,18.71,9.56c6.09,3.33,12.19,6.38,18.29,9.15
		c6.09,2.78,12.47,4.16,19.12,4.16c6.65,0,13.02-1.38,19.13-4.16c6.09-2.77,12.19-5.82,18.29-9.15c6.09-3.33,12.19-6.51,18.29-9.56
		c6.09-3.04,13.02-4.85,20.78-5.4c7.76-0.55,8.86,1.39,3.33,5.82c-14.42,12.2-25.92,24.11-34.51,35.75
		c-8.6,11.64-15.38,23.42-20.37,35.34c-4.99,11.93-8.73,23.7-11.23,35.34C415,566.3,412.92,578.23,411.26,590.42z"/>
</g>
</svg>
